HIERARCHY
ROOT hip
{
  OFFSET 0 0 0
  CHANNELS 6 Xposition Yposition Zposition Zrotation Yrotation Xrotation
  JOINT abdomen
  {
    OFFSET 0 20.6881 -0.73152
    CHANNELS 3 Zrotation Xrotation Yrotation
    JOINT chest
    {
      OFFSET 0 11.7043 -0.48768
      CHANNELS 3 Zrotation Xrotation Yrotation
      JOINT neck
      {
        OFFSET 0 22.1894 -2.19456
        CHANNELS 3 Zrotation Xrotation Yrotation
        JOINT head
        {
          OFFSET -0.24384 7.07133 1.2192
          CHANNELS 3 Zrotation Xrotation Yrotation
          JOINT leftEye
          {
            OFFSET 4.14528 8.04674 8.04672
            CHANNELS 3 Zrotation Xrotation Yrotation
            End Site
            {
              OFFSET 1 0 0
            }
          }
          JOINT rightEye
          {
            OFFSET -3.6576 8.04674 8.04672
            CHANNELS 3 Zrotation Xrotation Yrotation
            End Site
            {
              OFFSET 1 0 0
            }
          }
        }
      }
      JOINT rCollar
      {
        OFFSET -2.68224 19.2634 -4.8768
        CHANNELS 3 Zrotation Xrotation Yrotation
        JOINT rShldr
        {
          OFFSET -8.77824 -1.95073 1.46304
          CHANNELS 3 Zrotation Xrotation Yrotation
          JOINT rForeArm
          {
            OFFSET -28.1742 -1.7115 0.48768
            CHANNELS 3 Zrotation Xrotation Yrotation
            JOINT rHand
            {
              OFFSET -22.5879 0.773209 7.07136
              CHANNELS 3 Zrotation Xrotation Yrotation
              JOINT rThumb1
              {
                OFFSET -1.2192 -0.487915 3.41376
                CHANNELS 3 Zrotation Xrotation Yrotation
                JOINT rThumb2
                {
                  OFFSET -3.37035 -0.52449 3.41376
                  CHANNELS 3 Zrotation Xrotation Yrotation
                  End Site
                  {
                    OFFSET -1.78271 -1.18214 1.43049
                  }
                }
              }
              JOINT rIndex1
              {
                OFFSET -7.75947 0.938293 5.60832
                CHANNELS 3 Zrotation Xrotation Yrotation
                JOINT rIndex2
                {
                  OFFSET -2.54057 -0.884171 1.56538
                  CHANNELS 3 Zrotation Xrotation Yrotation
                  End Site
                  {
                    OFFSET -1.62519 -0.234802 1.16502
                  }
                }
              }
              JOINT rMid1
              {
                OFFSET -8.24714 1.18213 3.41376
                CHANNELS 3 Zrotation Xrotation Yrotation
                JOINT rMid2
                {
                  OFFSET -3.10165 -0.590103 1.0647
                  CHANNELS 3 Zrotation Xrotation Yrotation
                  End Site
                  {
                    OFFSET -2.48547 -0.328903 0.83742
                  }
                }
              }
              JOINT rRing1
              {
                OFFSET -8.82822 0.546677 1.51678
                CHANNELS 3 Zrotation Xrotation Yrotation
                JOINT rRing2
                {
                  OFFSET -2.60934 -0.819778 -0.0198488
                  CHANNELS 3 Zrotation Xrotation Yrotation
                  End Site
                  {
                    OFFSET -2.33842 -0.294052 0.168128
                  }
                }
              }
              JOINT rPinky1
              {
                OFFSET -8.27202 -0.0477905 -0.4584
                CHANNELS 3 Zrotation Xrotation Yrotation
                JOINT rPinky2
                {
                  OFFSET -1.82734 -0.647385 -0.700984
                  CHANNELS 3 Zrotation Xrotation Yrotation
                  End Site
                  {
                    OFFSET -1.69225 -0.51767 -0.607171
                  }
                }
              }
            }
          }
        }
      }
      JOINT lCollar
      {
        OFFSET 2.68224 19.2634 -4.8768
        CHANNELS 3 Zrotation Xrotation Yrotation
        JOINT lShldr
        {
          OFFSET 8.77824 -1.95073 1.46304
          CHANNELS 3 Zrotation Xrotation Yrotation
          JOINT lForeArm
          {
            OFFSET 28.1742 -1.7115 0.48768
            CHANNELS 3 Zrotation Xrotation Yrotation
            JOINT lHand
            {
              OFFSET 22.5879 0.773209 7.07136
              CHANNELS 3 Zrotation Xrotation Yrotation
              JOINT lThumb1
              {
                OFFSET 1.2192 -0.487915 3.41376
                CHANNELS 3 Zrotation Xrotation Yrotation
                JOINT lThumb2
                {
                  OFFSET 3.37035 -0.52449 3.41376
                  CHANNELS 3 Zrotation Xrotation Yrotation
                  End Site
                  {
                    OFFSET 1.78271 -1.18214 1.43049
                  }
                }
              }
              JOINT lIndex1
              {
                OFFSET 7.75947 0.938293 5.60832
                CHANNELS 3 Zrotation Xrotation Yrotation
                JOINT lIndex2
                {
                  OFFSET 2.54057 -0.884171 1.56538
                  CHANNELS 3 Zrotation Xrotation Yrotation
                  End Site
                  {
                    OFFSET 1.62519 -0.234802 1.16502
                  }
                }
              }
              JOINT lMid1
              {
                OFFSET 8.24714 1.18213 3.41376
                CHANNELS 3 Zrotation Xrotation Yrotation
                JOINT lMid2
                {
                  OFFSET 3.10165 -0.590103 1.0647
                  CHANNELS 3 Zrotation Xrotation Yrotation
                  End Site
                  {
                    OFFSET 2.48547 -0.328903 0.83742
                  }
                }
              }
              JOINT lRing1
              {
                OFFSET 8.82822 0.546677 1.51678
                CHANNELS 3 Zrotation Xrotation Yrotation
                JOINT lRing2
                {
                  OFFSET 2.60934 -0.819778 -0.0198488
                  CHANNELS 3 Zrotation Xrotation Yrotation
                  End Site
                  {
                    OFFSET 2.33842 -0.294052 0.168128
                  }
                }
              }
              JOINT lPinky1
              {
                OFFSET 8.27202 -0.0477905 -0.4584
                CHANNELS 3 Zrotation Xrotation Yrotation
                JOINT lPinky2
                {
                  OFFSET 1.82734 -0.647385 -0.700984
                  CHANNELS 3 Zrotation Xrotation Yrotation
                  End Site
                  {
                    OFFSET 1.69225 -0.51767 -0.607171
                  }
                }
              }
            }
          }
        }
      }
    }
  }
  JOINT rButtock
  {
    OFFSET -8.77824 4.35084 1.2192
    CHANNELS 3 Zrotation Xrotation Yrotation
    JOINT rThigh
    {
      OFFSET 0 -1.70687 -2.19456
      CHANNELS 3 Zrotation Xrotation Yrotation
      JOINT rShin
      {
        OFFSET 0 -36.8199 0.73152
        CHANNELS 3 Zrotation Xrotation Yrotation
        JOINT rFoot
        {
          OFFSET 0.73152 -45.1104 -5.12064
          CHANNELS 3 Zrotation Xrotation Yrotation
          End Site
          {
            OFFSET -1.1221 -3.69964 12.103
          }
        }
      }
    }
  }
  JOINT lButtock
  {
    OFFSET 8.77824 4.35084 1.2192
    CHANNELS 3 Zrotation Xrotation Yrotation
    JOINT lThigh
    {
      OFFSET 0 -1.70687 -2.19456
      CHANNELS 3 Zrotation Xrotation Yrotation
      JOINT lShin
      {
        OFFSET 0 -36.8199 0.73152
        CHANNELS 3 Zrotation Xrotation Yrotation
        JOINT lFoot
        {
          OFFSET -0.73152 -45.1104 -5.12064
          CHANNELS 3 Zrotation Xrotation Yrotation
          End Site
          {
            OFFSET 1.1221 -3.69964 12.103
          }
        }
      }
    }
  }
}
MOTION
Frames:	8
Frame Time:	0.00833333
-1.18804 84.6734 -217.141 0.0 0.0 0.0 -0.533512 -0.00266527 -0.015248 -0.147217 -0.00411041 -0.025507 -4.49801e-15 0.0 1.92573e-16 -1.34956e-14 3.18055e-15 5.93248e-16 -0.0 0.0 0.0 -0.0 0.0 0.0 -2.2377e-15 4.65902e-18 2.48481e-16 -4.57619e-14 -4.96962e-17 2.78299e-15 -8.21428e-13 2.47686e-13 2.54444e-14 -9.425e-12 -2.30466e-13 4.0393e-13 -2.22276e-11 3.80575e-14 9.63708e-13 -3.83937e-11 6.36111e-14 1.64832e-12 -2.22205e-11 4.05521e-14 9.47805e-13 7.73091 5.47488 0.417314 -2.22267e-11 3.81667e-14 9.57347e-13 2.90554 0.965183 0.102902 -2.22174e-11 3.83654e-14 9.53371e-13 10.2786 0.731801 0.0259123 -2.22335e-11 3.97569e-14 9.57347e-13 2.22167 -0.733487 -0.20892 -2.3345e-15 4.65902e-18 -4.96962e-17 -4.92819e-14 1.49089e-16 1.19271e-15 -8.2759e-13 -2.39933e-13 6.36111e-14 -9.42652e-12 2.71739e-13 3.88028e-13 -2.22391e-11 6.86258e-14 9.47805e-13 -3.83992e-11 1.20861e-13 1.64912e-12 -2.22456e-11 6.95746e-14 9.60528e-13 -7.73091 5.47488 -0.417314 -2.22399e-11 6.87795e-14 9.50986e-13 -2.90554 0.965183 -0.102902 -2.22471e-11 6.90777e-14 9.56552e-13 -10.2786 0.731801 -0.0259123 -2.22388e-11 6.87795e-14 9.57347e-13 -2.22167 -0.733487 0.20892 -2.03217e-16 0.0 -3.88251e-19 0.0945228 -2.38716 -0.0232783 -0.00799118 -1.22788 -0.0686771 -0.498324 3.61504 0.130476 2.03217e-16 0.0 3.88251e-19 -0.906506 -4.44109 0.0752771 0.00224349 2.49245 0.0119078 0.505302 1.94872 -0.0973759
-1.07052 81.6969 -220.607 -0.1419 4.1879 14.9174 0.295752 -5.14297 -0.452132 0.196689 1.36779 -0.194551 -1.52323 4.89335 -2.51183 -0.606063 -6.40262 -5.19907 -0.0 0.0 0.0 -0.0 0.0 0.0 2.77515e-16 -8.88083e-14 -4.40199e-15 18.724 8.79397 4.47836 -7.06116 -4.0876 9.91062 0.0477399 -4.8576 -0.673911 1.17888e-10 -6.68729e-10 -1.72024e-10 2.07893e-10 -1.16948e-09 -2.96037e-10 1.17892e-10 -6.68726e-10 -1.72039e-10 7.73091 5.47488 0.417314 1.17888e-10 -6.68728e-10 -1.7203e-10 2.90554 0.965183 0.102902 1.17897e-10 -6.68728e-10 -1.72032e-10 10.2786 0.731801 0.0259123 1.17882e-10 -6.68727e-10 -1.72026e-10 2.22167 -0.733487 -0.20892 2.06256e-16 -8.88069e-14 -4.70017e-15 -20.6677 -4.67335 2.14449 2.36024 -0.858171 -3.88645 -0.152379 8.68301 -1.17043 2.91027e-10 -1.04467e-10 -8.53917e-10 4.80337e-10 -1.84575e-10 -1.48073e-09 2.91022e-10 -1.04465e-10 -8.53906e-10 -7.73091 5.47488 -0.417314 2.91027e-10 -1.04466e-10 -8.53916e-10 -2.90554 0.965183 -0.102902 2.91018e-10 -1.04466e-10 -8.53912e-10 -10.2786 0.731801 -0.0259123 2.91027e-10 -1.04466e-10 -8.53916e-10 -2.22167 -0.733487 0.20892 -2.03217e-16 0.0 -3.88251e-19 1.00035 -8.58096 -1.55615 0.0120239 7.87964 0.0785129 -0.120549 -3.16858 2.65841 2.03217e-16 0.0 3.88251e-19 -0.0212335 -16.9274 1.66697 0.0158622 14.8237 -0.154526 0.683987 0.332572 1.82191
-0.952542 81.9383 -219.491 -0.2615 3.4153 14.9326 1.08718 -10.5821 -0.933131 0.571411 2.83434 -0.375741 -2.65746 10.0365 -5.23007 -2.53065 -13.0035 -10.9139 -0.0 0.0 0.0 -0.0 0.0 0.0 3.41523e-15 -1.89584e-13 -9.78393e-15 37.0004 17.8795 9.53102 -12.976 -7.96692 20.5045 -0.0277035 -9.95853 -1.39818 2.78038e-10 -1.43651e-09 -3.7583e-10 4.89505e-10 -2.51274e-09 -6.46805e-10 2.78039e-10 -1.43651e-09 -3.75844e-10 7.73091 5.47488 0.417314 2.78037e-10 -1.43651e-09 -3.75834e-10 2.90554 0.965183 0.102902 2.78045e-10 -1.43651e-09 -3.75834e-10 10.2786 0.731801 0.0259123 2.78031e-10 -1.43651e-09 -3.75827e-10 2.22167 -0.733487 -0.20892 3.37472e-15 -1.89581e-13 -1.00821e-14 -42.1453 -9.54945 4.42511 4.73313 -1.75424 -8.00448 0.0896895 17.8135 -2.4956 6.50664e-10 -2.22762e-10 -1.82764e-09 1.07601e-09 -3.93567e-10 -3.16933e-09 6.50659e-10 -2.22759e-10 -1.82763e-09 -7.73091 5.47488 -0.417314 6.50665e-10 -2.2276e-10 -1.82764e-09 -2.90554 0.965183 -0.102902 6.50654e-10 -2.2276e-10 -1.82764e-09 -10.2786 0.731801 -0.0259123 6.50663e-10 -2.2276e-10 -1.82765e-09 -2.22167 -0.733487 0.20892 -2.03217e-16 0.0 -3.88251e-19 1.59234 -15.1687 -3.23058 -0.0189801 17.5566 0.246189 0.924783 -10.3084 5.36192 2.03217e-16 0.0 3.88251e-19 1.77271 -30.1125 3.72035 0.119108 28.0547 -0.366901 0.992429 -1.36335 3.85363
-0.852055 82.1219 -218.522 -0.1794 2.9933 14.9793 1.7116 -15.4198 -1.36975 0.908842 4.11144 -0.533846 -3.25042 14.5653 -7.75884 -5.41652 -18.559 -16.3732 -0.0 0.0 0.0 -0.0 0.0 0.0 5.30794e-15 -2.66434e-13 -1.37029e-14 51.709 25.7017 14.766 -17.091 -10.7963 30.2451 -0.209198 -14.5646 -2.08139 3.98119e-10 -2.00626e-09 -5.18e-10 7.00465e-10 -3.50856e-09 -8.91406e-10 3.98118e-10 -2.00626e-09 -5.18013e-10 7.73091 5.47488 0.417314 3.98118e-10 -2.00626e-09 -5.18004e-10 2.90554 0.965183 0.102902 3.98125e-10 -2.00626e-09 -5.18002e-10 10.2786 0.731801 0.0259123 3.98113e-10 -2.00626e-09 -5.17993e-10 2.22167 -0.733487 -0.20892 5.28776e-15 -2.6643e-13 -1.40011e-14 -60.9291 -13.9403 6.60751 6.73386 -2.52718 -11.6695 0.708187 26.003 -3.86255 9.1756e-10 -3.13539e-10 -2.56365e-09 1.51781e-09 -5.53966e-10 -4.44549e-09 9.17557e-10 -3.13535e-10 -2.56364e-09 -7.73091 5.47488 -0.417314 9.17562e-10 -3.13536e-10 -2.56365e-09 -2.90554 0.965183 -0.102902 9.1755e-10 -3.13536e-10 -2.56365e-09 -10.2786 0.731801 -0.0259123 9.17558e-10 -3.13537e-10 -2.56366e-09 -2.22167 -0.733487 0.20892 -2.03217e-16 0.0 -3.88251e-19 1.75709 -20.9081 -4.89252 -0.100128 26.0941 0.412704 2.48682 -16.5906 8.03935 2.03217e-16 0.0 3.88251e-19 4.4536 -41.7523 6.21706 0.312301 39.4849 -0.611494 1.36591 -2.88509 5.6675
-0.850075 82.2249 -217.675 -0.2638 2.7601 15.0621 2.09941 -18.7577 -1.65197 1.13491 4.91506 -0.633001 -3.43493 17.6676 -9.60072 -8.10911 -22.1229 -20.445 -0.0 0.0 0.0 -0.0 0.0 0.0 4.08816e-15 -2.83469e-13 -1.39646e-14 60.6716 30.9745 19.2374 -19.4585 -12.3457 37.3812 -0.411773 -17.9409 -2.6081 4.18029e-10 -2.08092e-09 -5.0608e-10 7.34795e-10 -3.63579e-09 -8.70589e-10 4.18029e-10 -2.08092e-09 -5.06093e-10 7.73091 5.47488 0.417314 4.18029e-10 -2.08092e-09 -5.06084e-10 2.90554 0.965183 0.102902 4.18036e-10 -2.08092e-09 -5.0608e-10 10.2786 0.731801 0.0259123 4.18024e-10 -2.08092e-09 -5.06071e-10 2.22167 -0.733487 -0.20892 4.06225e-15 -2.83465e-13 -1.42628e-14 -73.6993 -17.186 8.39293 8.05016 -3.03797 -14.1923 1.43328 31.8818 -5.01503 9.52605e-10 -3.35521e-10 -2.70536e-09 1.57495e-09 -5.92884e-10 -4.69058e-09 9.52602e-10 -3.35517e-10 -2.70535e-09 -7.73091 5.47488 -0.417314 9.52607e-10 -3.35519e-10 -2.70537e-09 -2.90554 0.965183 -0.102902 9.52594e-10 -3.35518e-10 -2.70536e-09 -10.2786 0.731801 -0.0259123 9.52603e-10 -3.35519e-10 -2.70538e-09 -2.22167 -0.733487 0.20892 -2.03217e-16 0.0 -3.88251e-19 1.61296 -24.5801 -6.27325 -0.189725 31.784 0.53406 4.0672 -20.8572 10.3305 2.03217e-16 0.0 3.88251e-19 7.23114 -49.6694 8.56929 0.499675 46.4147 -0.804248 1.67553 -3.98686 6.92761
-0.818792 82.3078 -216.774 -0.3405 2.4324 15.0914 2.23846 -19.9651 -1.6923 1.20144 4.99772 -0.650097 -3.49777 18.8534 -10.3263 -9.31573 -23.3249 -22.0617 -0.0 0.0 0.0 -0.0 0.0 0.0 -2.16151e-15 -2.12146e-13 -7.44627e-15 63.2574 33.2115 21.6949 -20.4442 -13.0264 40.6747 -0.528486 -19.6198 -2.87888 2.71895e-10 -1.33803e-09 -2.51163e-10 4.766e-10 -2.33005e-09 -4.31247e-10 2.71897e-10 -1.33803e-09 -2.51176e-10 7.73091 5.47488 0.417314 2.71896e-10 -1.33804e-09 -2.51165e-10 2.90554 0.965183 0.102902 2.71903e-10 -1.33804e-09 -2.51162e-10 10.2786 0.731801 0.0259123 2.7189e-10 -1.33803e-09 -2.51152e-10 2.22167 -0.733487 -0.20892 -2.24297e-15 -2.12144e-13 -7.74678e-15 -78.381 -18.904 9.55845 8.51211 -3.21192 -15.1048 1.8466 34.5925 -5.60752 6.1014e-10 -2.52659e-10 -1.93226e-09 1.00428e-09 -4.46374e-10 -3.34784e-09 6.10139e-10 -2.52656e-10 -1.93225e-09 -7.73091 5.47488 -0.417314 6.10143e-10 -2.52657e-10 -1.93227e-09 -2.90554 0.965183 -0.102902 6.10131e-10 -2.52656e-10 -1.93226e-09 -10.2786 0.731801 -0.0259123 6.10139e-10 -2.52657e-10 -1.93228e-09 -2.22167 -0.733487 0.20892 -2.03217e-16 0.0 -3.88251e-19 1.41969 -25.393 -7.10303 -0.227946 33.4931 0.556434 5.04804 -22.4061 11.8408 2.03217e-16 0.0 3.88251e-19 8.51292 -52.5052 9.44728 0.521782 47.009 -0.800435 1.78987 -4.50902 7.3745
-0.801362 82.3928 -215.84 -0.5366 2.0327 15.1008 2.21647 -19.6528 -1.5518 1.15292 4.56819 -0.608412 -3.58061 18.6934 -10.2098 -9.1762 -22.9751 -21.7888 -0.0 0.0 0.0 -0.0 0.0 0.0 -1.1972e-14 -7.79304e-14 3.83592e-15 61.7871 33.4586 22.3952 -20.6742 -13.3778 41.1828 -0.55139 -20.0873 -2.95285 8.3847e-12 -1.71076e-11 1.76025e-10 1.16133e-11 -1.1101e-11 3.04808e-10 8.39215e-12 -1.7118e-11 1.76012e-10 7.73091 5.47488 0.417314 8.39034e-12 -1.71203e-11 1.76024e-10 2.90554 0.965183 0.102902 8.39633e-12 -1.71205e-11 1.76028e-10 10.2786 0.731801 0.0259123 8.38148e-12 -1.71086e-11 1.76036e-10 2.22167 -0.733487 -0.20892 -1.21439e-14 -7.79314e-14 3.53154e-15 -77.3814 -19.5466 10.2403 8.38682 -3.15388 -14.8656 1.89199 35.0511 -5.70037 5.45508e-13 -9.53137e-11 -5.0966e-10 -1.05606e-11 -1.68146e-10 -8.77817e-10 5.45314e-13 -9.53129e-11 -5.09651e-10 -7.73091 5.47488 -0.417314 5.48228e-13 -9.53133e-11 -5.09669e-10 -2.90554 0.965183 -0.102902 5.37348e-13 -9.53124e-11 -5.09667e-10 -10.2786 0.731801 -0.0259123 5.45453e-13 -9.53124e-11 -5.0968e-10 -2.22167 -0.733487 0.20892 -2.03217e-16 0.0 -3.88251e-19 1.30601 -24.1786 -7.48163 -0.216725 32.3587 0.49929 5.40277 -22.0532 12.6975 2.03217e-16 0.0 3.88251e-19 8.19567 -51.7562 8.7984 0.414938 43.0797 -0.646155 1.7399 -4.62119 7.23905
-0.846673 82.4771 -214.966 -0.8118 1.5708 15.154 2.12911 -18.7856 -1.33166 1.05278 4.02688 -0.541292 -3.65956 17.9929 -9.76027 -8.50571 -22.0468 -20.7776 -0.0 0.0 0.0 -0.0 0.0 0.0 -2.21309e-14 7.40552e-14 1.4368e-14 58.7823 32.8646 22.3695 -20.6256 -13.6303 40.5432 -0.530426 -20.0404 -2.94112 -2.60785e-10 1.33596e-09 6.28485e-10 -4.63702e-10 2.36604e-09 1.08444e-09 -2.60772e-10 1.33595e-09 6.28472e-10 7.73091 5.47488 0.417314 -2.60776e-10 1.33594e-09 6.28485e-10 2.90554 0.965183 0.102902 -2.6077e-10 1.33594e-09 6.28488e-10 10.2786 0.731801 0.0259123 -2.60787e-10 1.33596e-09 6.28496e-10 2.22167 -0.733487 -0.20892 -2.23859e-14 7.4051e-14 1.40629e-14 -74.1407 -19.7214 10.6477 8.02886 -3.0045 -14.1733 1.76768 34.5579 -5.5705 -6.31232e-10 7.81731e-11 1.04025e-09 -1.06024e-09 1.38203e-10 1.81222e-09 -6.31232e-10 7.81717e-11 1.04026e-09 -7.73091 5.47488 -0.417314 -6.3123e-10 7.81719e-11 1.04024e-09 -2.90554 0.965183 -0.102902 -6.31239e-10 7.81727e-11 1.04024e-09 -10.2786 0.731801 -0.0259123 -6.31231e-10 7.81733e-11 1.04023e-09 -2.22167 -0.733487 0.20892 -2.03217e-16 0.0 -3.88251e-19 1.25104 -22.1645 -7.63845 -0.19138 30.078 0.413676 5.44555 -20.9444 13.242 2.03217e-16 0.0 3.88251e-19 7.32573 -49.5738 7.56059 0.29838 37.3987 -0.466927 1.63072 -4.57557 6.91782
